<svg xmlns="http://www.w3.org/2000/svg" version="1.1" xmlns:xlink="http://www.w3.org/1999/xlink" xmlns:svgjs="http://svgjs.dev/svgjs" width="1000" height="1000" viewBox="0 0 1000 1000"><g transform="matrix(1,0,0,1,-0.14221556886212738,-0.14221556886229791)"><svg viewBox="0 0 334 334" data-background-color="#ffffff" preserveAspectRatio="xMidYMid meet" height="1000" width="1000" xmlns="http://www.w3.org/2000/svg" xmlns:xlink="http://www.w3.org/1999/xlink"><g id="tight-bounds" transform="matrix(1,0,0,1,0.04749999999998522,0.04750000000001364)"><svg viewBox="0 0 333.90454557049503 333.90454557049503" height="333.90454557049503" width="333.90454557049503"><g><svg></svg></g><g><svg viewBox="0 0 333.90454557049503 333.90454557049503" height="333.90454557049503" width="333.90454557049503"><g><path d="M0 166.952c0-92.205 74.747-166.952 166.952-166.952 92.205 0 166.952 74.747 166.953 166.952 0 92.205-74.747 166.952-166.953 166.953-92.205 0-166.952-74.747-166.952-166.953zM166.952 316.63c82.665 0 149.677-67.013 149.678-149.678 0-82.665-67.013-149.677-149.678-149.677-82.665 0-149.677 67.013-149.677 149.677 0 82.665 67.013 149.677 149.677 149.678z" data-fill-palette-color="tertiary" fill="#77d4fc" stroke="transparent"></path><ellipse rx="160.27418187383762" ry="160.27418187383762" cx="166.95227278524752" cy="166.95227278524752" fill="#77d4fc" stroke="transparent" stroke-width="0" fill-opacity="1" data-fill-palette-color="tertiary"></ellipse></g><g transform="matrix(1,0,0,1,83.80032669856429,71.17305217166896)"><svg viewBox="0 0 166.30389217336645 191.55844122715712" height="191.55844122715712" width="166.30389217336645"><g><svg viewBox="0 0 166.30389217336645 191.55844122715712" height="191.55844122715712" width="166.30389217336645"><g><svg viewBox="0 0 166.30389217336645 191.55844122715712" height="191.55844122715712" width="166.30389217336645"><g><svg viewBox="0 0 166.30389217336645 191.55844122715712" height="191.55844122715712" width="166.30389217336645"><g id="textblocktransform"><svg viewBox="0 0 166.30389217336645 191.55844122715712" height="191.55844122715712" width="166.30389217336645" id="textblock"><g><svg viewBox="0 0 166.30389217336645 191.55844122715712" height="191.55844122715712" width="166.30389217336645"><g transform="matrix(1,0,0,1,0,0)"><svg width="166.30389217336645" viewBox="3.4000000953674316 -35 30.94999885559082 35.650001525878906" height="191.55844122715712" data-palette-color="#ffffff"><path d="M20.45-20.75Q27.05-18.85 30.7-16.2 34.35-13.55 34.35-9.15L34.35-9.15Q34.35-6.1 32.8-3.9 31.25-1.7 28.55-0.53 25.85 0.65 22.45 0.65L22.45 0.65Q19.25 0.65 16.3-0.6 13.35-1.85 10.45-4.15L10.45-4.15 10.45-0.05 3.4-0.05 3.4-12.55 8.4-12.8Q11-9.65 14.9-7.68 18.8-5.7 21.9-5.7L21.9-5.7Q23.75-5.7 24.83-6.35 25.9-7 25.9-8.3L25.9-8.3Q25.9-9.85 23.45-11.15 21-12.45 14.95-14.1L14.95-14.1Q8.95-15.75 6.2-18.43 3.45-21.1 3.45-25.15L3.45-25.15Q3.45-28.1 5.1-30.33 6.75-32.55 9.45-33.77 12.15-35 15.2-35L15.2-35Q21.35-35 25.5-31.15L25.5-31.15 25.5-34.3 32.55-34.3 32.55-22.15 27.8-21.9Q26.15-25.1 23.23-26.88 20.3-28.65 17.25-28.65L17.25-28.65Q14.85-28.65 13.38-27.8 11.9-26.95 11.9-25.5L11.9-25.5Q11.9-24.1 13.75-23.08 15.6-22.05 20.45-20.75L20.45-20.75Z" opacity="1" transform="matrix(1,0,0,1,0,0)" fill="#ffffff" class="undefined-text-0" data-fill-palette-color="quaternary" id="text-0"></path></svg></g></svg></g></svg></g></svg></g><g></g></svg></g></svg></g></svg></g></svg></g><defs></defs></svg><rect width="333.90454557049503" height="333.90454557049503" fill="none" stroke="none" visibility="hidden"></rect></g></svg></g></svg>